<svg id="svg54" version="1.1" viewBox="0 0 169 62" xmlns="http://www.w3.org/2000/svg"><defs id="defs34"><linearGradient id="linearGradient3764" x1="178" x2="185" y1="46" y2="46" gradientTransform="translate(-29.1 -15)" gradientUnits="userSpaceOnUse" spreadMethod="reflect"><stop id="stop9" stop-color="#81ff2d" offset="0"><animate id="a8" attributeName="offset" dur="0.5s" repeatCount="indefinite" values="0.8;0.5;0.8"/></stop><stop id="stop11" offset="1"/></linearGradient><linearGradient id="linearGradient3786" x1="114" x2="114" y1="21" y2="79.4" gradientTransform="translate(-29.1 -15)" gradientUnits="userSpaceOnUse" spreadMethod="reflect"><stop id="stop2" stop-color="#FFF" offset="0"/><stop id="stop4" stop-color="#FFF" stop-opacity="0" offset=".495"/><stop id="stop6" stop-color="#FFF" stop-opacity="0" offset="1"/></linearGradient><linearGradient id="linearGradient4051" x1="29.1" x2="193" y1="46" y2="46" gradientTransform="translate(-29.1 -15)" gradientUnits="userSpaceOnUse" spreadMethod="reflect"><stop id="stop21" offset="0"><animate id="a1" attributeName="stop-color" begin="1s; a6.end" dur="0.2s" values="#FFF"/></stop><stop id="stop23" stop-color="#0F0" offset=".2"><animate id="a2" attributeName="stop-color" begin="a1.end" dur="0.2s" values="#FFF"/></stop><stop id="stop25" stop-color="#0F0" offset=".4"><animate id="a3" attributeName="stop-color" begin="a2.end" dur="0.2s" values="#FFF"/></stop><stop id="stop27" stop-color="#0F0" offset=".6"><animate id="a4" attributeName="stop-color" begin="a3.end" dur="0.3s" values="#FFF"/></stop><stop id="stop29" stop-color="#0F0" offset=".8"><animate id="a5" attributeName="stop-color" begin="a4.end" dur="0.5s" values="#F00"/></stop><stop id="stop31" offset="1"><animate id="a6" attributeName="stop-color" begin="a5.end" dur="0.2s" values="#FFF"/></stop></linearGradient></defs><path id="path40" d="M16 6C10.46 6 6 10.46 6 16v30c0 5.54 4.46 10 10 10h130c5.54 0 10-4.46 10-10v-5h3.53c2.18 0 3.94-1.73 3.94-3.91v-12.2c0-2.18-1.76-3.94-3.94-3.94H156v-4.97c0-5.54-4.46-10-10-10H16z" color="#000" fill="url(#linearGradient3764)"/><path id="path44" d="M16 6C10.46 6 6 10.46 6 16v30c0 5.54 4.46 10 10 10h130c5.54 0 10-4.46 10-10v-5h3.53c2.18 0 3.94-1.73 3.94-3.91v-12.2c0-2.18-1.76-3.94-3.94-3.94H156v-4.97c0-5.54-4.46-10-10-10H16z" color="#000" fill="url(#linearGradient4051)" opacity=".8"/><path id="path48" d="M16 6C10.46 6 6 10.46 6 16v30c0 5.54 4.46 10 10 10h130c5.54 0 10-4.46 10-10v-5h3.53c2.18 0 3.94-1.73 3.94-3.91v-12.2c0-2.18-1.76-3.94-3.94-3.94H156v-4.97c0-5.54-4.46-10-10-10H16z" color="#000" fill="url(#linearGradient3786)" stroke="#288521"/></svg>