<svg viewBox="0 0 1000 1000" xmlns="http://www.w3.org/2000/svg"><g fill="#4783B8"><path d="M143 0C68 0 0 68 0 143v714c0 75 68 143 143 143h714c75 0 143-68 143-143V143c0-75-68-143-143-143zm0 75h714c38 0 68 30 68 68v714c0 38-30 68-68 68H143c-38 0-68-30-68-68V143c0-38 30-68 68-68z"/><path d="M500 171c-146 0-286 58-389 161a44 44 0 0 0 0 63 44 44 0 0 0 63 0c87-87 204-135 326-135s240 49 326 135a44 44 0 0 0 63 0 44 44 0 0 0 0-63C786 229 646 171 500 171z"><animate fill="freeze" id="p4" attributeName="fill" attributeType="XML" begin="p3.end-.125s;" dur=".125s" from="#0A0E11" to="#4783B8"/></path><path d="M500 344c-105 0-207 42-281 116a44 44 0 0 0 0 63 44 44 0 0 0 63 0c58-58 136-90 218-90s160 33 218 90a44 44 0 0 0 63 0 44 44 0 0 0 0-63c-75-75-176-116-281-116z" color="#000"><animate fill="freeze" id="p3" attributeName="fill" attributeType="XML" begin="p2.end-.25;" dur=".25s" from="#0A0E11" to="#4783B8"/></path><path d="M500 517c-68 0-133 27-181 75a44 44 0 0 0 0 63 44 44 0 0 0 63-.002c31-31 74-49 118-49s87 18 118 49a44 44 0 0 0 63 .002 44 44 0 0 0 0-63c-48-48-113-75-181-75z"><animate fill="freeze" id="p2" attributeName="fill" attributeType="XML" begin="p1.end-.375;" dur=".375s" from="#0A0E11" to="#4783B8"/></path><path d="M500 690c-38 0-70 31-70 70 0 38 31 70 70 70 38 0 70-31 70-70 0-38-31-70-70-70z"><animate fill="freeze" id="p1" attributeName="fill" attributeType="XML" begin=".5s;p4.end+.5s" dur=".5s" from="#0A0E11" to="#4783B8"/></path></g></svg>